<?xml version="1.0" encoding="utf-8"?>
<svg version="1.1" id="kurdistan_map" xmlns="http://www.w3.org/2000/svg" viewBox="0 0 1203.53 1080">
	<path id="area-duhok" d="M543.35,117.12c0,0-3.28-1.21-4.2-1.51c-0.92-0.29-2.13-0.92-3.72-1.36s-0.77-0.96-2.91-0.4
			c-2.14,0.55-2.28,0.11-3.46,1.1s-1.33,0.4-3.17,3.24c-1.84,2.83-1.18,2.87-2.8,4.64c-1.62,1.77-1.66,1.88-3.42,3.06
			c-1.77,1.18-0.99-1.1-2.02,1.36c-1.03,2.47-1.69,3.24-2.36,3.98c-0.66,0.74-1.51,1.73-2.72,2.72c-1.21,0.99-1.44,0.22-2.17,1.14
			s-0.33,0.44-0.74,1.77c-0.4,1.33-0.15,6.33-0.74,6.48c-0.59,0.15-2.94,0.52-5.08,0.77c-2.13,0.26-7.25-0.11-8.69-0.26
			c-1.44-0.15-2.54-0.37-3.83,0.66c-1.29,1.03-2.8,2.91-3.42,3.06c-0.63,0.15-0.99-0.04-2.17-0.74s-1.51-0.63-2.39-1.66
			c-0.88-1.03-0.55-2.61-2.54-3.02c-1.99-0.4-0.04-0.55-3.31-0.55c-3.28,0-10.67-1.21-10.67-1.21s-6.92-0.52-9.57,0.29
			c-2.65,0.81-2.61,1.36-5.41,2.21c-2.8,0.85-2.58,0.7-5.23,0.99s-0.63,2.58-3.87,0.04c-3.24-2.54-1.73-2.13-4.34-3.09
			c-2.61-0.96-4.2-1.1-4.2-1.1s-2.06,0.96-2.94-1.69c-0.88-2.65-0.66-3.42-1.88-4.56c-1.21-1.14,0.77-2.21-2.47-1.55
			c-3.24,0.66-1.69-0.29-4.67,1.1s-1.91,1.77-4.79,2.65c-2.87,0.88-2.1,1.36-4.16,0.99c-2.06-0.37-2.06-0.29-4.09-0.99
			s-2.76-6.33-4.75-6.99c-1.99-0.66-4.31-1.18-5.3-1.99s-7.18-3.17-9.02-4.9s-4.93-4.01-5.19-5.34c-0.26-1.33-1.62-2.65-2.98-3.64
			s-0.74-1.21-2.72-1.44c-1.99-0.22-2.65-1.1-4.67-0.15s-1.4-0.11-2.94,1.8c-1.55,1.91-1.25,1.21-1.8,2.43
			c-0.55,1.21,0.85,2.36-1.47,1.73c-2.32-0.63-1.95,0-3.35-1.1s-1.21-0.7-3.13-1.77c-1.91-1.07-2.13-0.81-3.61-2.43
			c-1.47-1.62-1.33-1.84-2.58-2.83c-1.25-0.99,3.17-0.66-2.32-1.84c-5.48-1.18-4.97-0.66-6.63-1.51c-1.66-0.85-1.77-0.81-3.39-1.84
			c-1.62-1.03-1.07-1.73-4.27-2.43s-4.93-0.85-6.44-1.03c-1.51-0.18-1.73,0.22-2.8-0.77c-1.07-0.99-1.33-2.58-2.28-3.13
			s-11.34,1.03-12.07,1.21c-0.74,0.18-6.92,1.21-7.21,1.66c-0.29,0.44-0.22,1.25-2.28,1.55c-2.06,0.29-3.68,0.55-5.6,0.77
			s-1.47-2.06-3.39,1.73c-1.91,3.79-2.76,5.3-4.16,5.71s-1.18-0.66-3.53,0.11c-2.36,0.77-2.65,0.04-3.9,1.55s0.26,2.5-2.13,2.5
			s-1.73-0.48-4.45-1.66c-2.72-1.18-2.58-1.25-4.64-1.99s-3.09-0.74-5.6-1.58s-5.56-1.77-5.56-1.77s-0.29-1.58-1.88-2.32
			c-1.58-0.74-1.66-1.25-3.68-0.88c-2.02,0.37-3.09,1.58-3.64,0.63c-0.55-0.96-2.17-2.13-1.55-3.87c0.63-1.73,0.85-3.94,0.85-3.94
			s-1.33-1.62-2.28-1.91c-0.96-0.29-5.01-1.1-5.12-1.1c-0.11,0-2.39,1.07-3.06,1.66c-0.66,0.59-8.54,8.91-8.91,9.02
			c-0.37,0.11-2.17-0.55-2.76,1.51c-0.59,2.06,0.04,6-0.29,6.07c-0.33,0.07-3.87,2.1-4.82,2.28s-3.5-0.37-4.71,0.29
			c-1.21,0.66,0.29,6.37-0.07,6.4s-2.5,4.2-2.87,4.23c-0.37,0.04-5.89,1.95-6.07,2.28c-0.18,0.33-2.83,7.99-2.94,8.06
			s-6.37,5.52-6.37,5.82s-0.29,4.56-0.59,5.26s-3.64,4.12-4.12,4.82c-0.48,0.7-3.09,3.13-3.2,3.57c-0.11,0.44-1.58,8.58-1.66,8.47
			c-0.07-0.11-1.47,0.22-2.02-0.74c-0.55-0.96-3.09-2.58-3.09-2.58s-1.77,0.44-3.42,1.62c-1.66,1.18-3.35,2.25-4.56,2.32
			s-6.77-0.52-8.1-0.52s-3.9-0.11-5.82,0.37c-1.91,0.48-4.23,0.81-5.82,1.33c-1.58,0.52-4.64,2.39-6.11,3.46
			c-1.47,1.07-1.66,1.47-3.17,1.4s-5.89-0.96-6.74-0.81c-0.85,0.15-2.54,0.18-3.02,1.47s-1.62,1.95-1.1,3.75s0.44,3.06,1.51,3.75
			c1.07,0.7,3.2,0.37,3.53,1.21c0.33,0.85,1.8,0.96,0.48,1.91c-1.33,0.96-2.76,2.06-2.76,2.06s1.59,4.82,1.73,5.15
			c0.14,0.33,1.93,2.48,2.76,3.29c0.83,0.8,1.93,2.84,2.32,3.75s0.61,5.16,0.83,5.52s1.27,1.79,2.02,2.6c0.75,0.8,4.09,3.26,4.58,4.28
			c0.5,1.02,3.04,2.95,3.15,3.15s1.82,2.54,1.82,2.62c0,0.08,2.65,0.8,2.65,0.8s0.97,0.14,1.16,0.44s0.72,2.79,1.33,3.09
			s3.7,0.52,4.5,0.3s1.35-1.21,1.16-2.65c-0.19-1.44-0.28-3.06-0.25-4.36c0.03-1.3,0.14-1.74,1.21-1.52c1.08,0.22,2.9,0.17,3.2,1.24
			c0.3,1.08,0.99,2.26-0.22,3.64c-1.21,1.38-0.63,1.16-1.77,2.57c-1.13,1.41-1.33,4.42-1.55,4.91s-1.99,3.2-1.71,4.17
			s1.05,1.52,1.55,1.55c0.5,0.03,1.05,0.11,2.02-0.44c0.97-0.55,1.33-0.69,1.88-0.47c0.55,0.22,1.74-0.06,1.85,1.05
			s0.11,1.93-0.52,3.12c-0.63,1.19-3.92,4.06-4.36,4.78c-0.44,0.72-0.58,1.3-0.33,1.88c0.25,0.58,0.77,1.41,1.6,1.74
			c0.83,0.33,1.88,1.38,1.99,1.63c0.11,0.25,0.44,0.83-0.22,1.96c-0.66,1.13-1.52,2.07-2.1,2.46c-0.58,0.39-2.1,0.83-1.3,1.27
			s1.9,0.66,3.37,1.74c1.46,1.08,3.45,2.57,3.98,3.31c0.52,0.75,2.68,2.51,2.84,3.26c0.17,0.75,1.55,2.29,2.4,2.54
			c0.86,0.25,3.84,1.55,4.56,2.13c0.72,0.58,1.41,1.16,2.07,2.21c0.66,1.05,1.88,2.84,1.88,2.84s0.58-0.17,2.1,0.39
			c1.52,0.55,3.62,1.88,3.95,2.57s3.31,2.29,3.62,2.46s1.55,0.47,2.6,0.03c1.05-0.44,2.76-2.32,2.76-2.32s1.46-1.35,1.93-1.46
			c0.47-0.11,1.66-1.21,1.74-1.55c0.08-0.33,1.19-1.74,1.21-1.66c0.03,0.08,0.11,1.88,0.44,2.46c0.33,0.58,0.69,0.83,1.71,1.71
			c1.02,0.88,1.9,1.6,2.71,2.62c0.8,1.02,1.05,1.93,1.68,2.79c0.63,0.86,0.77,0.55,1.19,1.88c0.41,1.33,0.88,2.95,0.94,3.17
			c0.06,0.22,1.02,1.55,1.02,1.55s6.65-0.47,6.74-0.44c0.08,0.03,1.6,0.58,3.04,1.27s2.76,1.05,3.95,2.26
			c1.19,1.21,2.02,1.24,3.2,1.88c1.19,0.63,2.07,0.61,3.73,1.27c1.66,0.66,2.07,0.86,3.59,1.21s2.93,0.14,4.17,0.22
			c1.24,0.08,1.13,0.08,3.09,0.3s3.87,0.22,4.83,0.06c0.97-0.17,2.35-0.5,3.06-0.72c0.72-0.22,1.99-2.29,2.51-2.68
			s1.33-1.27,2.54-1.24c1.21,0.03,1.88-0.14,2.71,0.14c0.83,0.28,1.74,0.3,2.84-0.08c1.1-0.39,2.43-1.13,3.04-1.74
			s0.88-0.99,2.29-1.19c1.41-0.19,2.79-0.39,3.15-0.72c0.36-0.33,3.2-0.52,5.08-0.72c1.88-0.19,3.92-0.97,5.41-0.52
			c1.49,0.44,2.46,0.83,3.29,1.63c0.83,0.8,2.65,1.13,4,1.33c1.35,0.19,1.3,0.06,3.42,0.28c2.13,0.22,2.98,0.14,4.28-0.03
			c1.3-0.17,2.79-0.66,3.2-0.91c0.41-0.25,0.91-2.51,1.74-2.73c0.83-0.22,0.91-0.66,2.46-0.47c1.55,0.19,3.56,0.5,3.56,0.5
			s7.62,0.72,8.97,0.63s3.98-0.69,4.64-1.02c0.66-0.33,0.72-0.66,1.49-0.5c0.77,0.17,4.5,0.47,5,0.8c0.5,0.33,2.21,4.69,2.73,5.25
			c0.52,0.55,1.79,4.28,2.32,4.89s1.79,1.19,2.71,1.6c0.91,0.41,1.66,2.02,1.71,2.71s-2.21,9.55-2.21,9.55l-2.57,9.06
			c0,0-2.9,7.87-2.93,8.34c-0.03,0.47-0.47,8.39-0.47,8.39s0.63,8.06,0.63,8.37s0.55,1.35,1.41,1.55c0.86,0.19,4.42-0.03,4.42-0.03
			l3.23,6.13c0,0,5.91,1.99,7.9,2.24s6.71,0.19,6.71,0.19s5.11,4.14,6.13,4.61c1.02,0.47,7.79,5.91,8.14,6.32
			c0.36,0.41,3.06,2.84,4.25,3.78c1.19,0.94,2.68,1.77,4.06,2.18c1.38,0.41,2.07,0.25,4.06,0.72s4.09-1.27,5.08-1.44
			c0.99-0.17,6.32-0.77,6.32-0.77s3.98-0.14,4.22-0.06c0.25,0.08,1.93,0.61,2.04,0.86c0.11,0.25,1.35,1.35,1.93,1.1
			c0.58-0.25,1.44-0.25,1.41,0.19s-0.36,2.15-0.19,3.34c0.17,1.19,1.41,1.88,1.52,2.98c0.11,1.1,0.01,2.19,0.01,2.19
			s-0.65,1.67-1.7,2.25c-1.05,0.58-2.94,1.59-3.52,1.62c-0.58,0.03-0.87,0.63-1.24,1.82c-0.37,1.19-1.16,3.29-1.16,3.29
			s0.48,1.12,1.57,2.14c1.09,1.02,1.9,0.26,1.92,2.07c0.01,1.81,0.25,3.26,0.25,3.26l-1.64,4.53l-3.75,4.01l-0.99,2.94
			c0,0-2.94,1.58-3.5,2.02c-0.55,0.44-2.47,1.84-2.76,1.88s-2.21,0.96-2.21,0.96l-1.66,3.35c0,0-1.62-0.15-1.91-0.07
			c-0.29,0.07-1.25,0.18-1.25,0.18s-1.14,2.39-1.07,2.69c0.07,0.29,0.48,1.66,0.74,2.13c0.26,0.48,1.99,2.28,2.28,2.98
			c0.29,0.7,0.55,4.6,0.55,4.6s4.64,0.59,4.9,0.63s2.13,2.02,2.13,2.02l1.55,7.58c0,0,1.58,5.01,1.77,5.34s2.54,3.46,3.24,3.75
			c0.7,0.29,4.12,2.91,4.71,3.75c0.59,0.85,4.75,2.98,4.75,2.98s3.72,1.55,4.49,1.55s1.84-1.91,1.91-2.02
			c0.07-0.11-0.15-3.46,0.4-3.75c0.55-0.29,1.58-2.21,1.91-2.65c0.33-0.44,0.77-2.28,0.88-2.36c0.11-0.07,1.29-1.55,1.66-1.73
			c0.37-0.18,2.28-1.51,2.28-1.51s1.58-1.25,1.91-1.47c0.33-0.22,2.25-1.84,2.54-2.13c0.29-0.29,2.87-1.58,2.87-1.58
			s-0.26-5.19,0.22-5.45c0.48-0.26,1.62-1.03,1.62-1.18s1.1-3.64,1.03-4.05c-0.07-0.4,0.18-1.14,0.81-1.47
			c0.63-0.33,1.25-0.66,2.1-0.96c0.85-0.29,1.55-0.18,2.25-0.63c0.7-0.44,1.62-0.77,2.1-1.14c0.48-0.37,1.36-0.96,1.84-1.03
			c0.48-0.07,1.44-0.77,1.73-0.99c0.29-0.22,0.52-1.66,1.1-1.73s3.53-1.07,3.53-1.07s3.42-0.4,3.57-0.52
			c0.15-0.11,1.29-3.87,1.36-3.98c0.07-0.11,0.92-0.85,1.14-1.21s1.21-1.88,1.66-2.06s1.99-0.85,1.99-0.85l-0.04-2.21l0.48-1.4
			l4.05-0.77l1.55-1.95c0,0,0.37-1.8,0.37-1.99s-0.74-1.25,0.11-1.29c0.85-0.04,1.36-0.81,1.36-0.81l0.18-2.65l1.44-1.73
			c0,0,2.25-0.26,2.98-0.48c0.74-0.22,1.18-0.59,1.29-1.18s-0.04-1.25,0.33-1.44s1.03-0.99,1.03-0.99s0.11-1.84,0.04-2.1
			c-0.07-0.26-0.59-1.73-1.36-2.17s-1.4-2.06-1.4-2.06l1.47-1.55c0,0,0-1.66-0.29-1.69c-0.29-0.04-1.18-0.55-1.62-1.07
			c-0.44-0.52-0.55-1.91-0.55-2.39s0.4-1.21,0.63-1.29c0.22-0.07,2.54,0,2.54,0s0.92,1.36,1.03,1.36c0.11,0,6.04-0.33,6.15-0.33
			s0.7-1.33,0.99-1.33c0.29,0,1.84-1.21,1.84-1.21l0.63-1.8l-0.15-4.6c0,0-1.47-1.33-1.58-1.4c-0.11-0.07-0.81-1.1-0.92-2.06
			c-0.11-0.96,0.33-4.09,0.33-4.09l7.51,0.15c0,0-0.29,0.92,0.74,0.99s2.72,0.44,2.91,0.44c0.18,0,1.25-0.44,1.62-0.74
			c0.37-0.29,0.99-1.58,1.07-1.8s0.04-2.39,0.04-2.83s-1.51-2.5-1.51-2.5s0.37-2.91,0.4-3.02c0.04-0.11-0.22-1.29,0.63-1.21
			c0.85,0.07,2.69,0.48,2.69,0.48s1.33,1.84,1.33,1.99s0.63,1.91,0.63,1.91s1.95,0.15,2.06,0.07c0.11-0.07,2.58-3.39,2.76-3.83
			c0.18-0.44,0.88-2.8,1.14-2.98c0.26-0.18,2.5-1.58,2.91-1.88c0.4-0.29,1.4-3.02,1.4-3.02s0.92-2.06,1.47-2.28
			c0.55-0.22,4.75-2.21,4.75-2.32c0-0.11,0.92-3.39,0.92-3.39l1.29-1.36c0,0,0.88-1.77,1.4-1.8c0.52-0.04,1.25-0.04,1.29-0.15
			c0.04-0.11,0.11-3.94,0.11-3.94s2.06-0.77,2.61,0.29c0.55,1.07,0.96,3.79,1.03,3.98c0.07,0.18,1.66,0.96,2.32,1.14
			c0.66,0.18,3.13-0.22,3.13-0.22s1.91-1.25,2.32-1.03s-0.33,2.06-0.59,2.47c-0.26,0.4-1.99,3.46-1.66,3.61
			c0.33,0.15,0.26-0.07,0.74,0.29c0.48,0.37,2.58,1.25,3.06,0.99c0.48-0.26,0.88-1.18,1.07-1.99c0.18-0.81,2.61-4.38,2.61-4.38
			s1.36,0.04,2.06-0.22c0.7-0.26,0.66-1.1,1.58-1.25c0.92-0.15,2.69,0.33,3.06,0.44c0.37,0.11,0.55,2.02,0.59,2.36
			c0.04,0.33,0.77,1.66,1.07,2.13c0.29,0.48,0.88,0.99,1.51,0.99c0.63,0,0.59,0.33,1.51-0.26c0.92-0.59,1.51-2.39,1.8-3.31
			c0.29-0.92,0.4-1.55,1.29-2.1c0.88-0.55,1.18-1.03,2.28-1.03s3.39-0.22,3.39-0.22s0.4-2.58,0.96-2.94s1.44-1.33,1.99-1.66
			c0.55-0.33,1.36-1.88,1.69-2.13s1.25-0.7,2.17-0.81c0.92-0.11,2.65,0.37,3.35-0.07c0.7-0.44,1.29-1.4,1.73-1.84s1.29-0.99,1.29-1.62
			s1.25-3.64,1.4-3.79s0.88-0.92,0.88-0.92s2.32-0.11,2.68-0.08c0.36,0.03,2.07-0.77,2.07-0.86s1.24-2.51,1.44-3.04
			c0.19-0.52,1.08-1.27,1.1-1.96c0.03-0.69,0.11-1.93,0.19-2.26s0.91-1.13,1.46-1.68c0.55-0.55,0.97-1.16,1.74-2.04
			s1.38-1.49,2.07-1.99c0.69-0.5,0.86-0.41,1.46-0.97c0.61-0.55,1.16-1.08,1.38-1.79c0.22-0.72,0.58-1.38,0.58-1.77
			s-0.17-1.96-0.28-2.4s0.06-1.13-0.72-1.21s-2.65,0.69-3.15,1.02c-0.5,0.33-0.25,0.36-1.35,0.91c-1.1,0.55-1.05,0.39-2.07,0.97
			c-1.02,0.58-1.63,0.75-2.07,0.75s-1.08-0.63-1.19-1.3s0.5-1.35-0.28-2.37c-0.77-1.02-1.19-1.1-1.3-2.1s0-1.68-0.25-1.85
			s-1.24-0.22-1.6-0.47c-0.36-0.25-1.6-2.35-1.6-2.35s-1.79-0.41-2.82-0.39c-1.02,0.03-2.13-1.21-2.21-1.24
			c-0.08-0.03-4.67-0.99-4.86-1.1c-0.19-0.11-0.8-1.3-1.35-1.6c-0.55-0.3-3.92-0.25-4.11-0.25c-0.19,0-5.83-0.52-6.79-0.11
			c-0.97,0.41-1.93,0.91-1.93,0.91l-4.09,0.14c0,0-0.77-0.44-1.08-0.58c-0.3-0.14-3.2-0.69-3.2-0.69l-0.41-3.73
			c0,0-2.76,0.03-3.12-0.14c-0.36-0.17-1.74-1.35-2.62-1.66s-1.13-0.39-2.68-0.55s-2.93-0.03-3.67-0.3c-0.75-0.28-1.68-0.75-2.87-1.02
			c-1.19-0.28-2.87-0.61-2.87-0.61s-5.52-4.39-6.6-4.89c-1.08-0.5-3.53-1.35-3.92-1.63c-0.39-0.28-2.93-1.66-3.4-2.21
			c-0.47-0.55-0.86-0.91-0.91-1.79s-0.11-2.35-0.08-2.54s0.11-0.52,0.63-1.57c0.52-1.05,0.41-0.77,0.83-2.21s0.61-1.82,0.94-2.6
			s0.77-0.94,0.97-1.74s0.19-1.44,0.28-2.21c0.08-0.77-0.06-1.08,0.58-1.57s2.26-1.05,2.26-1.66s0.61-1.41,0.11-2.13
			c-0.5-0.72-1.33-1.74-1.74-2.57c-0.41-0.83-0.91-0.8-1.05-2.62c-0.14-1.82-0.03-2.26-0.22-3.42c-0.19-1.16-0.64-2.04-1.13-2.79
			c-0.5-0.75-1.3-1.44-1.63-1.96c-0.33-0.52-1.27-1.02-1.77-1.13c-0.5-0.11-2.26-0.22-2.43-0.86c-0.17-0.63-0.72-2.46-0.8-2.62
			c-0.08-0.17-0.83-0.86-0.83-0.86s-0.55-1.27-1.38-1.46s-1.88-0.22-2.21-0.17c-0.33,0.06-0.44,0.47-0.86,0.5
			c-0.41,0.03-3.31,0.14-3.31,0.14s-2.6,0.25-3.04-0.25s-1.41-1.79-1.41-1.79s-0.47-0.55-1.33-1.35s-1.44-1.27-2.02-1.33
			c-0.58-0.06-0.88,0.22-1.57-0.14c-0.69-0.36-0.91-0.3-1.46-0.72c-0.55-0.41-0.8-0.69-1.44-1.13c-0.63-0.44-1.77-1.27-1.77-1.27
			s-1.1-0.55-1.13-1.41c-0.03-0.86,0.58-2.32,0.58-2.32s0.66-1.13,1.38-2.32c0.72-1.19,0.91-1.35,1.71-2.35
			c0.8-0.99-0.47-0.88,1.57-1.1c2.04-0.22,3.42,0.06,3.84,0.14c0.41,0.08,1.46,0,1.71-1.1c0.25-1.1-0.22-3.26,0.3-4.36
			c0.52-1.1,0.41-1.44,1.21-1.93c0.8-0.5,1.82-1.24,2.76-1.44c0.94-0.19,1.49-0.39,2.57-1.16c1.08-0.77,0.28-0.63,2.37-1.1
			c2.1-0.47,1.96-0.28,2.71-0.88s1.55-1.3,1.96-1.88c0.41-0.58,0.44-1.21,1.44-1.1c0.99,0.11,0.77-0.55,1.44-1.08s1.52-0.41,2.21-0.55
			c0.69-0.14,1.24-0.39,2.02-1.3c0.77-0.91,0.86-1.41,2.1-2.07c1.24-0.66,4.28-3.09,4.36-3.4s1.82-2.73,1.9-2.87
			c0.08-0.14,0.88-0.75,1.44-1.49c0.55-0.75,0.69-1.27,1.19-1.88c0.5-0.61,0.58-0.86,1.68-1.27s1.6-0.69,2.6-0.72
			c0.99-0.03,2.35-0.28,3.15-0.39c0.8-0.11,1.71-1.38,1.71-1.38s-0.14-4.8-0.06-5.11s0.19-1.55,1.1-2.02
			c0.91-0.47,2.37-1.49,3.01-2.07c0.64-0.58,1.57-1.96,2.51-2.82c0.94-0.86,1.27-1.24,2.21-1.57s1.13-5.08,1.05-5.22
			s0.19-1.02-0.25-1.24c-0.44-0.22-1.82-1.24-2.07-1.33s-1.1-1.08-1.21-2.04c-0.11-0.97,0.14-7.1,0.14-7.1l-1.3-1.24
			c0,0,0.17-3.64,0.36-3.87s1.35-1.71,1.66-2.24c0.3-0.52,0.61-1.16,0.55-1.96c-0.06-0.8-0.06-2.48-0.22-2.65
			c-0.17-0.17-1.68-0.66-2.1-0.97c-0.41-0.3-1.05-1.24-1.13-1.46S543.35,117.12,543.35,117.12z"/>
	
	<path id="area-erbil" d="M780.41,309.05c0,1.03-0.59,7.95-0.74,8.39c-0.15,0.44-5.59,4.27-5.59,4.27s-4.71,2.06-4.71,3.09
		c0,1.03,0.44,5.45,1.76,6.92c1.33,1.48,1.92,2.8,0.15,4.13c-1.77,1.32-5.3,5-5.74,5.15c-0.44,0.15-3.83,0-2.65,2.65
		c1.17,2.65,1.03,5.89,1.03,5.89l-3.68,3.98c0,0,1.47,5.3,0.88,5.74s-2.5,1.76-4.12,3.83c-1.62,2.06-2.51,2.5-3.54,2.94
		s-3.09,2.06-3.09,2.06s-4.12-1.18-4.75-1.18c-0.62,0-3.72,0.37-4.67-0.03c-0.96-0.41-1.92-1.55-2.28-1.77
		c-0.37-0.22-0.7-0.77-1.81-1.03c-1.1-0.26-1.18-0.66-2.72-0.81c-1.55-0.15-1.33-1.07-2.91,0.15c-1.58,1.21-3.57,1.62-4.2,1.8
		c-0.62,0.18-1.8,0.74-3.01,1.62c-1.22,0.88-1.18,0.88-2.1,1.33c-0.92,0.44-1.29,0.66-2.29,1.47c-0.99,0.81-1.06,0.84-2.42,1.8
		c-1.37,0.96-1.59,1.25-2.47,1.47c-0.88,0.22-1.18,0.34-2.25-0.07c-1.06-0.4-1.36-0.11-2.13-0.85c-0.77-0.73-1.18-2.09-1.55-2.39
		c-0.37-0.29-0.03-0.4-1.43-0.55s-1.77-0.48-2.8-0.33c-1.03,0.15-2.65,1.14-3.06,1.47c-0.4,0.33-0.62,0.55-1.62,0.85
		c-0.99,0.29-1.43,0.55-2.02,0.36c-0.59-0.18,0.44-0.33-0.85-0.33c-1.28,0-3.42,0.45-4.38,0.59c-0.95,0.15-3.49,0.26-3.94,0.26
		c-0.44,0-0.92-0.55-1.87-0.92c-0.96-0.37-1.29-1.33-1.88-1.62c-0.59-0.29-2.28-0.77-3.17-0.85c-0.88-0.07-4.01-0.33-4.49-0.14
		c-0.47,0.18-2.06,0.88-2.06,0.88s-1.07,2.5-1.32,2.87c-0.26,0.37-1.4,2.54-1.4,3.39c0,0.84-0.22,2.32-0.7,3.42
		c-0.48,1.11-1.18,2.1-1.36,2.21c-0.19,0.11-1.33,1.29-2.87,2.17c-1.55,0.88-1.99,1.22-2.36,1.66s-1.62,1.54-2.36,2.21
		c-0.73,0.66-1.17,0.92-1.5,1.95c-0.34,1.03-0.12,0.81-0.67,1.4c-0.55,0.58-1.43,0.84-1.99,0.84c-0.55,0-1.32-0.7-2.28,0.19
		c-0.95,0.88-1.65,1.54-2.02,2.72c-0.37,1.18-0.08,1.07-0.52,2.54c-0.44,1.47-0.92,2.5-0.92,2.5s-0.84,1-0.88,2.36
		c-0.04,1.36-1.33,2.72-0.85,3.75c0.48,1.03-0.62,0.92,1.55,2.36c2.17,1.44,3.13,0.96,4.38,2.17c1.25,1.22,1.18,0.81,2.65,2.03
		c1.47,1.21,1.99,1.14,2.1,2.43c0.11,1.28,0.37,1.87,1.73,2.72c1.36,0.85,2.5,0.26,2.83,1.4c0.33,1.14,0.55,5.37,0.55,5.37l1.77,1.03
		c0,0,1.07-3.68,1.73-3.68c0.66,0,1.25-0.92,2.43,0.08c1.18,0.99,0.37,1.62,1.69,2.68c1.33,1.07,1.55,1.66,2.36,2.29
		c0.81,0.62,2.61,1.17,3.16,1.32c0.56,0.15,2.32-0.33,3.21,0c0.88,0.33,1.65,2.47,1.87,3.17c0.23,0.7,0.85,1.03,1.77,1.58
		c0.92,0.55,1.88-0.15,1.33,1.32c-0.56,1.48-0.74,1.73-0.81,2.8c-0.08,1.07,1.21,2.36,1.8,3.61c0.59,1.25,1.88,1.36,2.17,3.16
		c0.3,1.81,0.7,2.65,0.66,3.39c-0.03,0.74-0.4,0.85-1.87,0.81c-1.47-0.04-2.25,0.18-3.76-0.26c-1.51-0.44-2.17-0.66-3.05-1.03
		c-0.89-0.37,0.95-1.29-1.73-0.77c-2.69,0.51-5.56-0.07-5.67,0.66c-0.11,0.74-0.04,8.14-0.3,8.43c-0.25,0.3-0.73,2.8-1.03,3.54
		c-0.29,0.73-0.33,2.94-1.43,3.79c-1.11,0.84-2.28,1.84-2.47,3.02c-0.18,1.17,3,1.43,3,1.43s2.89-0.85,2.89-1.07
		c0-0.22,1.2-2.41,1.62-2.72s2.04-0.92,2.04-0.92l2.62,1.82c0,0,1.56,1.46,2.34,1.92c0.77,0.46,1.34,0.84,1.43,1.63
		c0.09,0.79,0.06,1.49-0.17,1.92c-0.22,0.42-0.73,1.08-1.41,1.84c-0.68,0.75-1.14,0.7-1,1.75c0.15,1.05-0.66,1.41,0.48,2.19
		c1.14,0.77,2.03,0.77,2.36,1.08c0.33,0.32,3.27,2.6,3.83,3.32c0.55,0.71,1.58,1.61,2.72,2.04c1.14,0.42,1.62,0.66,2.89,1.14
		s1.91,0.55,3.18,1.07c1.27,0.51,1.38,0.03,2.91,1.52c1.53,1.5,2.21,2.14,2.21,2.14s6.63,7.8,6.79,7.97
		c0.17,0.16,0.66,0.83,2.71,3.31c2.04,2.49,3.64,6.02,4.64,7.07c0.99,1.05,3.09,2.26,4.03,3.2c0.93,0.94,1.76,1.16,3.25,3.48
		s2.21,3.09,3.43,4.14c1.21,1.05,4.14,2.1,5.13,2.93c1,0.83,8.34,7.62,9.22,8.33c0.89,0.72,2.65,3.43,3.59,4.31
		c0.94,0.89,2.32,2.27,2.71,3.31c0.38,1.05,1.05,1.72,0.38,2.38c-0.66,0.66-1.21,0.99-2.04,1.05c-0.83,0.05-4.75,0.05-4.75,0.05
		s-3.03,1.44-3.92,0.28c-0.88-1.16-2.32-2.93-2.32-2.93s-1.21-1.54-1.98-1.82c-0.78-0.28-4.48-1.1-4.48-1.1s-0.77,0.27-2.37-0.5
		c-1.6-0.77-3.87,0.11-4.14,0.25c-0.28,0.14-0.31,2.81-0.06,2.9c0.25,0.08,1.99,2.15,1.99,2.79c0,0.63,0.47,0.99-0.58,1.98
		c-1.05,1-1.55,0.67-2.7,1.33c-1.16,0.66-1.8,1.65-2.32,2.21c-0.53,0.55-0.91,1.51-1.55,1.13c-0.63-0.39-1.44-3.34-0.97-4.5
		c0.47-1.16,0.25-2.93,0.25-2.93s-1.43-1.02-2.34-1.1c-0.92-0.09-2.63,1.13-2.68,1.35c-0.06,0.22-0.33,3.53-0.55,3.81
		c-0.23,0.28-0.03,0.55-1.22,1.41c-1.19,0.85-2.24,0.91-2.51,0.05c-0.28-0.85-0.11-3.09-0.44-3.61c-0.33-0.53-0.56-1.11-1.63-1.44
		c-1.08-0.33-1.3-0.69-2.62-0.44c-1.33,0.25-1.58,0.39-2.3,1.49c-0.71,1.1-0.35,1.91-1.35,1.91c-0.99,0-1.21,0.08-2.21-0.2
		c-0.99-0.27-1.71-0.16-1.76-1.07c-0.06-0.92-0.34-2.79-0.47-2.93c-0.14-0.14-3.84-0.55-3.92-0.55c-0.09,0-1.61,1.6-1.88,1.57
		c-0.28-0.03-1.16-0.36-1.35-0.3c-0.2,0.05-1.25,1.6-1.58,1.6s-3.72-0.08-3.72-0.25c0-0.17,0.49-4.28,0.22-4.56
		c-0.28-0.27,0.13-1.16-1.72-0.49c-1.84,0.66-3.06,1.41-3.28,2.18c-0.22,0.77-0.83,0.52-1.35-0.31c-0.53-0.82-0.78-2.51-0.89-2.62
		c-0.11-0.11-0.44-0.74-1.54-0.41c-1.11,0.33-2.18,0.52-2.35,0.85c-0.17,0.34-2.9-0.16-2.9-0.16s-1.21-3.7-2.65-3.7
		c-1.43,0-4.25,1.66-4.25,1.66s-0.94,4.25-1.38,4.58s-4.47,2.98-4.47,2.98s-0.83,2.87-1.11,2.87c-0.27,0-2.21-2.48-2.48-2.59
		c-0.28-0.11-3.59,1.04-3.59,1.6c0,0.55,0.44,4.8,0.44,4.8s-0.83,0.17-2.04-1.16c-1.22-1.32-1.71-1.93-2.1-3.04
		c-0.39-1.1-1.99-0.71-1.99-0.71s-0.61,1.27-2.43,1.54c-1.82,0.28-3.37-0.83-3.81-1.21c-0.44-0.39-1.54-2.43-2.87-2.6
		c-1.32-0.16-2.59,0.94-3.42,1.55c-0.83,0.61-0.33,3.37-2.1,3.04c-1.77-0.34-3.2-0.56-3.2-0.56s0.61-1.71-2.05-1.1
		c-2.65,0.61-3.2-0.17-4.08,1.43c-0.88,1.61,0.55,1.72-1.49,2.27c-2.04,0.55-4.03,0.38-4.53,0.77s-3.48,5.14-3.81,5.08
		c-0.33-0.05-2.59-1.99-3.48-2.21c-0.88-0.22-1.71,0-3.42,0c-1.71,0-1.49-2.76-3.2-0.83c-1.72,1.94-1.94,4.15-2.99,4.48
		c-1.04,0.33-2.2,0.27-3.86,0.11c-1.66-0.17-3.2,0.11-3.7,0.6c-0.5,0.5-1.32,0.61-3.31-1.1c-1.99-1.71-1.33-2.48-2.76-2.71
		c-1.44-0.22-2.1-0.33-4.09-0.33s-2.48,0.89-4.03-0.71c-1.55-1.61-1.44-3.7-2.71-2.27c-1.27,1.44-1.49,2.1-1.82,4.31
		c-0.33,2.21-1.43,3.53-2.48,4.25c-1.05,0.72-0.5,1.71-2.16,0.72c-1.65-1-1.82-1.05-3.42-1.82c-1.6-0.78-2.15,0.05-3.37-1.55
		c-1.21-1.6,0.11-2.87-2.21-2.43c-2.31,0.44-3.25-1.27-4.8,0.61s-1.99,1.38-2.37,2.04c-0.39,0.66-0.72,3.81-0.22,5.19
		c0.49,1.38,2.2,3.76,2.7,5.03c0.5,1.27,1.49,3.2,0.5,3.69c-1,0.5-6.41,1.22-7.62,1.33c-1.22,0.11-4.2-0.17-6.52-0.11
		c-2.32,0.05-4.8,0-5.35-0.33c-0.55-0.33-11.98-11.71-12.59-12.48c-0.61-0.77-13.81-13.86-13.81-13.86s-7.28-8.67-14.35-11.87
		s-16.51-8.12-19.99-9.94s-9.11-8.34-11.1-11.54c-1.98-3.2-3.42-11.76-3.14-14.96c0.27-3.2-1.66-8.56-1.72-10.33
		c-0.05-1.76-1.38-5.35-1.38-5.35l-1.76-4.03c0,0,2.26-2.82,3.37-3.92c1.1-1.11,3.92-3.59,4.14-3.65c0.22-0.05-0.19,0.22,1.03-0.15
		c1.21-0.36,0.66-1.06,2.94-0.58c2.28,0.47,2.62-0.11,4.35,1.06c1.73,1.18,1.47,1.51,4.63,1.62c3.17,0.11,3.94,0.52,5.56-0.11
		c1.62-0.62,2.36-0.99,2.8-2.54c0.44-1.54,1.18-3.27,0.81-5.59c-0.37-2.32-0.3-2.87-1.03-4.75c-0.74-1.88-0.77-2.39-1.51-3.65
		c-0.74-1.25-1.18-1.32-1.95-2.68c-0.77-1.36-0.33-1.62-1.77-3.09c-1.43-1.48-2.28-2.43-3.24-3.13c-0.96-0.7-2.87-1.11-5.11-2.32
		c-2.25-1.22-2.73-1.33-3.54-2.62c-0.81-1.28-0.22-1.91-2.39-2.2c-2.17-0.3-2.43-0.59-5.67-0.63s-4.38,0.11-6.85,0.04
		c-2.46-0.08-2.87-2.14-5.3,0.62c-2.43,2.76-1.29,0.59-3.31,4.05c-2.02,3.46-1.14,3.98-3.24,5.71c-2.1,1.73-0.81,2.13-3.64,2.72
		c-2.84,0.59-3.76,0.81-6.67,1.25c-2.9,0.44-4.49,0.41-4.49,0.41l-1.63-3.66c-0.01-1.03-0.02-2.83,0.38-3.04
		c0.55-0.3,1.58-2.21,1.92-2.65c0.33-0.44,0.77-2.28,0.88-2.36c0.11-0.07,1.29-1.54,1.66-1.73c0.36-0.18,2.28-1.51,2.28-1.51
		s1.58-1.25,1.91-1.47c0.33-0.22,2.25-1.84,2.54-2.13c0.3-0.3,2.87-1.59,2.87-1.59s-0.25-5.19,0.22-5.45
		c0.48-0.25,1.62-1.03,1.62-1.17c0-0.15,1.11-3.65,1.03-4.05c-0.07-0.41,0.19-1.14,0.81-1.47c0.63-0.34,1.26-0.67,2.1-0.96
		c0.85-0.3,1.55-0.19,2.25-0.63c0.7-0.44,1.62-0.77,2.1-1.14c0.47-0.37,1.36-0.96,1.84-1.03c0.47-0.07,1.43-0.77,1.73-0.99
		c0.29-0.22,0.51-1.66,1.1-1.73c0.59-0.08,3.53-1.07,3.53-1.07s3.43-0.41,3.58-0.52c0.14-0.11,1.28-3.86,1.36-3.97
		c0.07-0.11,0.92-0.85,1.14-1.22c0.22-0.36,1.21-1.87,1.65-2.06c0.45-0.18,1.99-0.84,1.99-0.84l-0.03-2.21l0.47-1.4l4.05-0.77
		l1.55-1.96c0,0,0.37-1.8,0.37-1.98c0-0.19-0.74-1.25,0.11-1.29c0.84-0.04,1.36-0.81,1.36-0.81l0.18-2.65l1.44-1.73
		c0,0,2.24-0.26,2.98-0.48c0.74-0.22,1.18-0.59,1.29-1.18c0.11-0.59-0.04-1.25,0.33-1.43c0.37-0.19,1.03-1,1.03-1s0.11-1.84,0.04-2.1
		c-0.08-0.25-0.59-1.73-1.36-2.17c-0.78-0.44-1.4-2.06-1.4-2.06l1.47-1.55c0,0,0-1.65-0.29-1.69c-0.3-0.04-1.18-0.55-1.62-1.07
		c-0.45-0.51-0.56-1.91-0.56-2.39s0.41-1.21,0.63-1.29c0.22-0.07,2.54,0,2.54,0s0.92,1.37,1.03,1.37c0.11,0,6.04-0.34,6.15-0.34
		s0.7-1.32,0.99-1.32c0.3,0,1.84-1.22,1.84-1.22l0.63-1.8l-0.15-4.6c0,0-1.47-1.33-1.58-1.4c-0.11-0.07-0.81-1.1-0.92-2.06
		c-0.11-0.96,0.33-4.09,0.33-4.09l7.51,0.15c0,0-0.3,0.92,0.73,0.99c1.03,0.08,2.73,0.45,2.91,0.45c0.19,0,1.25-0.45,1.62-0.74
		c0.37-0.29,0.99-1.58,1.07-1.8c0.07-0.22,0.04-2.4,0.04-2.84s-1.51-2.5-1.51-2.5s0.36-2.91,0.4-3.02c0.04-0.11-0.22-1.29,0.63-1.21
		c0.84,0.07,2.68,0.47,2.68,0.47s1.33,1.84,1.33,1.99s0.62,1.92,0.62,1.92s1.96,0.14,2.07,0.07s2.57-3.39,2.76-3.83
		c0.18-0.44,0.88-2.8,1.14-2.98s2.5-1.58,2.91-1.88c0.4-0.29,1.39-3.02,1.39-3.02s0.93-2.06,1.48-2.28c0.55-0.22,4.75-2.21,4.75-2.32
		s0.92-3.38,0.92-3.38l1.28-1.37c0,0,0.89-1.76,1.4-1.8c0.52-0.04,1.25-0.04,1.29-0.15c0.04-0.11,0.11-3.94,0.11-3.94
		s2.06-0.77,2.62,0.3c0.55,1.07,0.95,3.79,1.03,3.97c0.07,0.19,1.65,0.96,2.31,1.15c0.67,0.18,3.13-0.23,3.13-0.23
		s1.92-1.25,2.32-1.03c0.41,0.23-0.33,2.07-0.59,2.47c-0.25,0.41-1.98,3.46-1.65,3.61c0.33,0.15,0.26-0.08,0.73,0.29
		c0.48,0.37,2.58,1.25,3.06,1c0.48-0.26,0.88-1.18,1.07-1.99c0.18-0.81,2.61-4.38,2.61-4.38s1.36,0.03,2.06-0.22
		c0.7-0.26,0.66-1.11,1.58-1.25c0.92-0.15,2.69,0.33,3.06,0.44c0.37,0.11,0.55,2.02,0.59,2.35c0.03,0.33,0.77,1.66,1.07,2.14
		c0.29,0.48,0.88,0.99,1.5,0.99c0.63,0,0.59,0.33,1.51-0.26c0.92-0.58,1.51-2.39,1.81-3.31c0.29-0.92,0.4-1.54,1.29-2.1
		c0.88-0.55,1.17-1.03,2.28-1.03c1.1,0,3.38-0.22,3.38-0.22s0.41-2.57,0.96-2.94c0.55-0.37,1.44-1.33,1.99-1.66s1.36-1.88,1.69-2.13
		c0.33-0.26,1.25-0.7,2.17-0.81s2.65,0.36,3.35-0.08c0.7-0.44,1.29-1.4,1.73-1.84c0.45-0.44,1.29-0.99,1.29-1.62
		c0-0.62,1.25-3.64,1.4-3.79c0.15-0.15,0.88-0.92,0.88-0.92s2.32-0.11,2.68-0.08c0.36,0.03,2.07-0.78,2.07-0.86s1.25-2.51,1.44-3.04
		c0.19-0.52,1.08-1.26,1.1-1.96c0.03-0.69,0.11-1.93,0.2-2.26c0.08-0.33,0.91-1.13,1.46-1.68c0.55-0.56,0.97-1.16,1.74-2.05
		c0.77-0.88,1.38-1.49,2.07-1.98c0.69-0.5,0.86-0.42,1.46-0.97c0.61-0.55,1.16-1.08,1.38-1.79c0.22-0.72,0.58-1.38,0.58-1.77
		s-0.16-1.96-0.27-2.4s0.05-1.14-0.72-1.22c-0.77-0.08-2.65,0.69-3.15,1.02c-0.5,0.33-0.25,0.36-1.35,0.91
		c-1.11,0.56-1.05,0.39-2.07,0.97c-1.02,0.58-1.63,0.75-2.07,0.75s-1.08-0.64-1.19-1.3c-0.11-0.66,0.5-1.35-0.28-2.38
		c-0.77-1.02-1.18-1.1-1.29-2.09c-0.11-1,0-1.69-0.25-1.85c-0.25-0.17-1.24-0.22-1.6-0.47c-0.36-0.25-1.6-2.35-1.6-2.35
		s-1.8-0.41-2.82-0.39c-1.02,0.03-2.13-1.21-2.21-1.24c-0.08-0.03-4.66-0.99-4.86-1.1c-0.19-0.11-0.8-1.3-1.35-1.6
		c-0.55-0.31-3.92-0.25-4.11-0.25c-0.2,0-5.83-0.53-6.79-0.11c-0.97,0.41-1.94,0.91-1.94,0.91l-4.08,0.14c0,0-0.78-0.45-1.08-0.58
		c-0.3-0.14-3.2-0.69-3.2-0.69l-0.42-3.73c0,0-2.76,0.03-3.12-0.14c-0.36-0.16-1.74-1.35-2.62-1.65c-0.88-0.31-1.13-0.39-2.68-0.56
		c-1.54-0.16-2.92-0.02-3.67-0.3c-0.74-0.28-1.68-0.75-2.87-1.02c-1.19-0.28-2.87-0.61-2.87-0.61s-5.52-4.39-6.6-4.89
		c-1.08-0.49-3.53-1.35-3.92-1.62c-0.39-0.28-2.93-1.66-3.4-2.21c-0.46-0.56-0.85-0.91-0.91-1.8c-0.05-0.88-0.11-2.34-0.08-2.54
		c0.03-0.19,0.11-0.52,0.64-1.57c0.52-1.05,0.41-0.77,0.82-2.21c0.42-1.44,0.61-1.82,0.94-2.6c0.33-0.77,0.78-0.93,0.97-1.73
		s0.19-1.44,0.28-2.21c0.08-0.78-0.06-1.08,0.58-1.58c0.63-0.49,2.26-1.05,2.26-1.65c0-0.61,0.61-1.41,0.11-2.13
		c-0.5-0.72-1.33-1.74-1.74-2.57c-0.41-0.82-0.91-0.8-1.05-2.62s-0.03-2.26-0.22-3.42c-0.19-1.16-0.63-2.05-1.13-2.79
		c-0.5-0.75-1.3-1.44-1.63-1.96c-0.33-0.53-1.27-1.02-1.77-1.13c-0.49-0.11-2.26-0.22-2.43-0.86c-0.16-0.63-0.71-2.46-0.8-2.62
		c-0.08-0.17-0.83-0.86-0.83-0.86s-0.55-1.27-1.38-1.46c-0.82-0.19-1.87-0.22-2.2-0.17c-0.34,0.06-0.45,0.47-0.86,0.5
		c-0.41,0.03-3.31,0.14-3.31,0.14s-2.6,0.25-3.04-0.25s-1.41-1.79-1.41-1.79s-0.47-0.56-1.32-1.36c-0.86-0.8-1.44-1.27-2.02-1.32
		c-0.58-0.06-0.88,0.22-1.57-0.14c-0.69-0.36-0.91-0.3-1.47-0.72c-0.55-0.41-0.8-0.69-1.43-1.13c-0.64-0.44-1.77-1.27-1.77-1.27
		s-1.1-0.55-1.13-1.41c-0.03-0.85,0.58-2.32,0.58-2.32s0.66-1.13,1.38-2.32c0.72-1.18,0.91-1.35,1.71-2.34c0.8-1-0.47-0.89,1.58-1.11
		c2.04-0.22,3.42,0.06,3.83,0.14c0.42,0.08,1.47,0,1.71-1.1c0.25-1.11-0.22-3.26,0.31-4.36c0.52-1.11,0.41-1.44,1.21-1.94
		c0.8-0.49,1.83-1.24,2.76-1.43c0.94-0.2,1.49-0.39,2.57-1.16c1.08-0.78,0.28-0.64,2.38-1.11c2.09-0.47,1.96-0.27,2.7-0.88
		c0.75-0.61,1.55-1.3,1.96-1.88c0.42-0.58,0.44-1.21,1.44-1.1c0.99,0.11,0.77-0.55,1.43-1.08c0.66-0.52,1.52-0.41,2.21-0.55
		s1.24-0.39,2.02-1.3c0.77-0.91,0.85-1.41,2.09-2.07c1.25-0.66,4.28-3.09,4.37-3.39c0.08-0.31,1.82-2.74,1.9-2.88
		c0.08-0.13,0.88-0.74,1.44-1.49c0.55-0.74,0.69-1.27,1.18-1.87c0.5-0.61,0.58-0.86,1.69-1.27c1.1-0.42,1.6-0.69,2.59-0.72
		c1-0.03,2.35-0.28,3.15-0.39s1.71-1.38,1.71-1.38s-0.14-4.8-0.05-5.11c0.08-0.3,0.19-1.54,1.1-2.01c0.91-0.47,2.38-1.49,3.01-2.07
		c0.64-0.58,1.57-1.96,2.51-2.82c0.94-0.85,1.27-1.24,2.21-1.57c0.94-0.33,1.13-5.08,1.05-5.22c-0.08-0.14,0.19-1.02-0.25-1.24
		c-0.44-0.22-1.82-1.24-2.07-1.33c-0.25-0.08-1.1-1.07-1.21-2.04c-0.11-0.97,0.13-7.09,0.13-7.09l-1.29-1.25c0,0,0.16-3.64,0.36-3.86
		c0.19-0.22,1.35-1.71,1.65-2.24c0.31-0.52,0.61-1.16,0.55-1.96c-0.05-0.8-0.05-2.48-0.22-2.65c-0.16-0.16-1.68-0.66-2.09-0.96
		c-0.12-0.08-0.25-0.22-0.38-0.37c2.01-0.81,3.37-1.34,3.54-1.34c0.74,0,10.16-0.88,11.34-0.44s7.65,2.65,8.24,3.09
		c0.59,0.45,4.13,2.95,7.22,3.39c3.09,0.44,5.74,0.29,8.54,3.39c2.8,3.09,4.86,5.15,5.89,6.77c1.03,1.62,3.68,5.74,3.68,6.77
		c0,1.03-1.03,6.19-0.44,8.69c0.59,2.5,2.21,5.15,1.91,6.33c-0.29,1.18-2.8,6.48-4.27,6.92c-1.47,0.44,1.33-1.62-3.83,0.88
		c0,0-2.65,1.77-3.97,2.07c-1.33,0.29-6.92,6.33-7.07,7.95c-0.15,1.62-1.03,2.94-0.59,5.74c0.44,2.8,0.59,6.77,1.33,7.36
		c0.73,0.59,6.33,3.39,6.77,4.71c0.44,1.33,0,3.24,0,5.01c0,1.77-1.03,1.18,1.77,5.89c2.79,4.71,3.09,5.89,3.68,8.83
		c0.59,2.95,1.47,4.86,3.38,5.16c1.92,0.29,6.04,2.35,6.48,2.79c0.44,0.45,1.03-4.27,1.47-4.27c0.45,0,2.51-2.35,3.24-3.38
		c0.74-1.03,2.51-5.01,2.51-5.01s3.09-1.47,4.12-2.06c1.03-0.59,0.88-2.5,0.44-2.8c-0.44-0.29-1.91-1.18-1.03-4.27
		c0.88-3.09,0-4.86,2.65-4.86c2.65,0,3.09-0.29,4.71,0c1.62,0.3,5.3,1.33,6.19,0.89c0.88-0.44,7.36-5.01,7.36-5.01
		s5.89-1.47,6.62-1.62c0.74-0.15,3.69-2.21,4.57-3.83c0.88-1.62,3.39-1.47,4.56-2.65c1.18-1.18,1.92-1.76,2.36-4.41
		s-1.03-0.89,2.8-2.8c3.82-1.92,2.21-0.74,3.82-1.92c1.62-1.17,3.24-4.41,3.24-4.41s-1.03-3.1,3.83-5.45
		c4.86-2.36,5.16-0.88,6.48-2.5c1.33-1.62,5.15-5.89,6.92-6.04c1.77-0.15,3.68-0.44,4.27,0.59c0.59,1.03,3.09,4.27,3.98,4.42
		c0.88,0.14,7.51-1.48,8.09-1.33c0.59,0.15,3.83,2.5,5.31,3.24c1.47,0.74,7.65,1.77,7.65,1.77s4.27-0.74,4.27,0.44
		s0.89,3.38-0.44,4.41c-1.33,1.04-3.98,3.39-4.42,4.27c-0.44,0.89-1.32,5.45-0.14,6.48c1.17,1.03,1.91,1.77,3.23,2.21
		c1.33,0.44,2.21,2.06,2.36,3.54c0.15,1.47-3.24,2.94-0.74,3.82c2.51,0.89,4.72,0.59,5.75,2.21s1.91,5.01,2.21,5.89
		c0.29,0.89-0.3,2.65,1.03,2.65c1.32,0,4.12-3.24,5.3-2.94c1.17,0.29,4.27,1.91,4.27,1.91s2.06,2.95,2.5,3.09
		c0.44,0.15,4.56-0.29,5.45,0c0.88,0.3,2.5,2.36,2.8,4.57c0.29,2.21,0.73,3.09-1.33,6.03c-2.06,2.95-2.36,12.37-1.91,13.11
		c0.44,0.74,3.38,4.27,3.82,5.89c0.45,1.62,1.33,10.16,0.59,13.4c-0.73,3.24-4.71,10.01-7.21,10.89c-2.5,0.89-4.71,1.92-4.71,3.1
		c0,1.17-2.51,5-2.95,5s-1.91,4.12-1.47,6.48c0.44,2.36,2.5,5.01,2.5,5.01s-1.32,1.47,3.39,1.62c4.71,0.14,9.86-0.15,9.86-0.15
		l3.83-1.92c0,0,2.36-0.14,3.83,0c1.47,0.15,3.98-0.58,4.27,2.95c0.29,3.53,1.62,5.89,3.68,5.74c2.06-0.15,5.15-1.03,6.48-0.88
		c1.33,0.15,4.12,1.03,4.56,2.8c0.45,1.76-0.14,1.62,1.92,2.5s6.18,3.53,6.33,4.71c0.15,1.18,5.89,4.71,6.33,9.57
		C779.08,305.81,780.41,308.02,780.41,309.05z"/>
	<path id="area-suli" d="M1080.92,556.45c0.11,1.21-1.76,6.4-2.54,7.73c-0.77,1.32-1.32,1.76-3.31,2.87c-1.99,1.1-2.76,1.21-3.75,2.43
		c-1,1.21-2.32,4.53-3.76,4.75c-1.43,0.22-2.87-0.44-3.31,0.77c-0.44,1.21,0,4.2-0.88,4.42c-0.89,0.22-3.21,2.21-4.75,2.54
		c-1.55,0.33-3.21,4.3-5.97,2.87c-2.76-1.44-3.31-3.31-4.97-3.2c-1.65,0.11-3.09,1.54-4.85,2.65c-1.77,1.1-4.64,7.17-6.52,7.17
		c-1.88,0-4.09,0.56-6.41-0.66c-2.31-1.21-7.17,1-8.28,1.11c-1.1,0.11-2.1,0.33-4.52-0.45c-2.43-0.77-2.99-1.65-5.2-2.09
		c-2.2-0.45-1.65-1.11-5.96,0.66c-4.31,1.77-4.86,6.96-5.41,7.62c-0.55,0.66-0.88,6.4-1.99,7.07c-1.1,0.66-3.2,3.42-2.32,3.64
		c0.89,0.22,3.43-0.99,3.98,1.32c0.55,2.32-0.77,1.99,0.11,3.65c0.88,1.66,4.2,3.09,1.55,4.75c-2.65,1.65-0.23,6.73-0.23,6.73
		s-1.54,0.78-2.65,0.22c-1.1-0.55-5.41-2.87-5.74-2.87s-1.65-0.11-1.54,0.56c0.11,0.66,0.88,3.31,1.32,4.63
		c0.44,1.33,3.09,3.65,3.87,4.97c0.77,1.33,1.54,3.32,1.54,4.53c0,1.22,1.66,2.32,1.66,2.76s-3.2,1.55-3.2,1.55s-2.1,3.09-1.77,3.64
		s-0.44,2.43,0,4.09c0.44,1.65,3.42,5.85,3.75,7.84c0.21,1.24,0.72,2.77,1.36,4.24c-1.62,0.53-2.74,0.87-2.94,0.87
		c-0.88,0-2.35,0.08-3.39,0.08c-1.03,0-4.71,1.1-5.22,1.03c-0.52-0.07-2.36-3.09-2.95-3.17c-0.59-0.07-1.47,2.06-1.47,2.06
		s0,4.27,0,4.72c0,0.44-2.06,2.72-2.06,2.72l-2.5,3.24l-0.67,3.61c0,0-0.07,1.25,1.26,1.25c1.32,0,1.69,1.25,1.91,1.47
		c0.22,0.22,1.69,2.14,1.69,2.36c0,0.22-0.37,4.12-0.37,4.12l1.7,3.83c0,0,3.02,3.97,3.46,4.34c0.44,0.37,1.25,1.4,1.4,2.14
		c0.14,0.73-1.92,3.31-1.92,3.31s-4.78,2.5-5.74,3.9c-0.96,1.4-2.36,2.21-4.42,3.83s-2.87,0.96-4.49,2.21s-0.88,2.13-1.69,3.24
		c-0.81,1.1-1.25,1.03-3.61,2.57c-2.35,1.55-1.32,1.84-1.69,2.73c-0.37,0.88,1.69,3.6,1.69,4.34c0,0.74-0.07,3.68-0.07,4.34
		c0,0.67-2.51,1.92-3.39,2.73c-0.88,0.81-0.73,3.75-1.32,5.08c-0.59,1.32-2.21,1.25-3.02,1.18c-0.81-0.08-3.39-1.92-3.39-1.92
		s-3.53-0.22-3.97-0.22c-0.45,0-2.36,1.92-2.07,3.46c0.3,1.55,0.67,0.88,0.96,1.33c0.3,0.44-1.18,3.9-1.62,4.41
		c-0.44,0.52-2.06,0.59-2.06,0.59l-2.65-2.28l-4.49,0.96c0,0-0.37,2.57-0.37,3.02c0,0.44,0.74,1.54,1.11,2.06
		c0.36,0.51,0.14,0.81,1.25,1.4c1.1,0.58,1.62-0.23,3.16,0c1.55,0.22,2.43,0.36,3.98,0.44c1.54,0.07,2.58,0.07,4.86,0.29
		c2.28,0.22,2.35,1.62,3.31,2.28c0.96,0.67,3.75,5.38,4.34,6.11c0.59,0.74,1.55,0.3,2.87,0.81c1.33,0.52,1.62,0.37,3.1,0.37
		c1.47,0,1.4-0.95,2.57-1.69c1.18-0.74,3.24,0,3.68,0.29c0.45,0.3,0.37,3.39,1.18,5.01c0.81,1.62,3.83,3.09,4.79,3.68
		c0.1,0.06,0.33,0.32,0.66,0.73v0.01c0.29,1.49-1.09,2.53-1.4,5.22c-0.33,2.88,2.21,4.75,1.55,6.08c-0.66,1.32-6.85,0.99-6.85,0.99
		s-3.97,0.11-4.31,2.54c-0.33,2.43-0.99,6.07-0.99,6.74c0,0.66,0.99,1.65,1.77,4.19c0.77,2.54,1.43,4.09,1.87,6.08
		c0.45,1.99,1.44,4.86,1.44,4.86s-2.43,5.3-3.42,6.62c-1,1.33-2.1,4.09-2.54,6.19c-0.44,2.09,0.66,4.3-0.33,5.63
		c-1,1.32-3.1,1.21-4.86,0.22c-1.77-0.99-0.44-1.44-4.75-2.76c-4.31-1.33-3.31-1.22-4.31-1.33c-0.99-0.11-5.96-0.88-5.96,1.44
		s0.33,4.64,0.66,6.62c0.33,1.99,2.54,6.08,1.77,7.62c-0.78,1.55-1,2.88-2.65,4.31c-1.66,1.44-2.98,2.87-4.42,3.31
		c-1.44,0.45-5.3,0.78-5.3,0.78l-3.2-1.99c0,0-3.21,1.54-5.3,2.98c-2.1,1.44-6.19,6.41-5.3,7.4c0.88,0.99,3.09,2.32,3.2,3.31
		c0.11,1-0.44,4.09-2.1,6.08c-1.66,1.98-3.09,4.3-4.09,6.18c-0.99,1.88-0.55,3.86-1.98,4.75c-1.44,0.88-2.98,2.87-3.32,3.97
		c-0.33,1.11,8.51,4.53,9.28,5.19c0.77,0.67,3.2,3.32,3.42,3.65s-2.32,1.21-1.65,3.64c0.66,2.43,1.21,3.2,1.98,3.54
		c0.78,0.33,2.43,0.88,2.32,5.41c-0.11,4.52,4.09,8.17,3.76,9.49c-0.33,1.33-1.22,3.43-1.22,3.98s2.43,2.32,2.65,4.64
		s-0.77,4.19-0.33,7.51c0.44,3.31,1,6.07-0.44,6.62c-1.43,0.55-2.32,1.44-4.31,0.11c-1.98-1.32-5.19-3.86-5.19-3.86
		s-2.43-0.22-4.63-0.11c-2.21,0.11-3.21,0.55-4.53,0.22c-1.33-0.33-1.55-1.44-3.09-0.89c-1.55,0.56-4.64,2.1-6.96,1.88
		c-2.32-0.22-5.08,0.33-7.29-1.1c-2.21-1.44-6.07-5.08-6.51-5.52c-0.45-0.45-0.89-2.32-2.1-3.76c-1.22-1.43-1-1.99-1.33-1.77
		c-0.33,0.23-2.32,0.67-2.87,2.54c-0.55,1.88-1.1,5.2-0.33,7.07c0.77,1.88,2.65,4.86,2.1,7.95c-0.55,3.1-0.55,9.72-1.77,10.94
		c-1.21,1.21-1.32,6.4-2.76,7.06c-1.44,0.67-3.09,1.33-4.86,1.66c-1.77,0.33-4.53-1.55-5.3-1.88c-0.77-0.33-1.55-1.32-2.65-0.22
		c-1.1,1.11-2.1,3.98-2.43,4.31c-0.33,0.33-1.99,1.65-1.99,1.65s-3.92,2.21-5.24,2.6c-1.33,0.39-3.43,2.65-6.52,2.82
		c-3.09,0.16-9.44-0.45-9.44-0.45s-1.82,0.83-3.92-1.1c-2.1-1.93-1.82-1.88-4.03-3.53c-2.21-1.66-2.76-1.94-4.86-2.93
		c-2.1-0.99-2.32-0.55-4.14-3.37c-1.82-2.81-2.65-4.64-3.64-6.02c-1-1.38-1.5-2.04-2.6-3.81c-1.1-1.76-2.26-1.82-1.93-3.81
		c0.33-1.98,0.99-2.87,1.32-4.3c0.33-1.44,2.1-3.43,0.22-1.6c-1.87,1.82-6.24,5.3-8.22,6.51c-1.99,1.22-2.93,0.83-4.59,3.31
		c-1.65,2.49-3.58,6.57-4.25,8.01c-0.66,1.44,0.06,2.71-1.87,4.09c-1.94,1.38-2.32,1.27-5.14,2.09c-2.82,0.83-2.32,1.16-4.47,2.27
		c-2.16,1.1-2.49,1.43-5.3,1.93c-2.82,0.5-2.82,0.77-5.14,1.05c-2.32,0.28-4.86-1.05-6.07-1.88c-1.22-0.83-1.93-1.71-1.93-1.71
		s0.11-4.53-1.49-3.26c-1.61,1.27-2.1,3.43-3.54,3.65c-1.43,0.22-2.26-0.33-3.92-2.49c-1.65-2.15-2.37-4.64-3.48-4.86
		c-1.1-0.22-3.59,0.67-5.41,1.94s-0.88,1.49-3.03,2.04c-2.16,0.55-2.32,0.99-4.31,0.39c-1.99-0.61-3.2-0.89-3.2-3.1
		c0-2.21,1.05-1.49,0.99-4.69c-0.06-3.2-0.22-3.98-0.17-6.18c0.06-2.21-0.16-2.6,0.17-5.64c0.33-3.03,0.17-3.64,0.99-5.08
		c0.83-1.43,1-1.21,3.1-4.03c2.09-2.81,3.25-3.31,4.74-4.63c1.49-1.33,2.16-2.43,3.15-4.15c1-1.71,2.43-1.76,1.49-3.31
		c-0.94-1.54-4.69-2.65-6.95-2.7c-2.27-0.06-3.93-0.11-5.31-1.05s-2.59-1-2.98-2.93c-0.38-1.93-0.16-3.15-0.11-4.64
		c0.06-1.49-1.1-4.03-2.48-2.98c-1.38,1.05-5.69,5.14-5.69,5.14s0.22,1.27-1.77,0.66c-1.98-0.61-3.53-1.77-3.53-3.26
		s6.41-5.74,6.41-5.74s0.38-1.33-0.78-1.77c-1.16-0.44-5.41-1.38-6.4-2.37c-1-1-4.86-3.87-4.86-3.87s-7.62-3.86-7.01-4.8
		c0.6-0.94,1.05-2.93,2.15-2.71c1.1,0.22,0.55,2.32,2.54,0.33c1.99-1.98,2.54-0.93,3.48-3.14c0.94-2.21,2.65-1.66,1.43-3.37
		c-1.21-1.71-2.04-1.77-2.32-3.2c-0.27-1.44-0.55-0.94,0.06-2.76c0.61-1.83,2.04-1.66,0.22-2.76c-1.82-1.11-1.38-1.77-2.93-1.55
		c-1.54,0.22-2.04,1.1-4.74,0.22c-2.71-0.88-2.21,0.22-3.98-1.49s-1.38-1.6-2.98-2.87s-0.83-1.71-3.09-1.71
		c-2.27,0-2.6,0.82-4.48,0.11c-1.87-0.72-3.7-2.32-4.69-3.65c-0.99-1.32-3.37-2.92-5.02-3.75c-1.66-0.83-1.66-0.55-2.65-1.49
		c-1-0.94-1.05-1.99-3.15-2.82c-2.1-0.83-1.71-1.43-4.36-1.54c-2.65-0.12-5.14,0-6.52-0.72c-1.38-0.72-2.1-1.38-2.32-2.98
		c-0.22-1.61-1.54-1.44,0-3.54c1.55-2.1,3.15-3.37,3.32-4.86c0.16-1.49-0.56-5.57-0.94-6.4c-0.39-0.83-0.17-2.27-1.55-2.49
		c-1.38-0.22-4.8,1.05-5.58,1.05c-0.77,0-3.59,0.22-5.13,0.28c-1.55,0.05-2.38-1.16-4.58-2.98c-2.21-1.82-2.1-2.54-3.21-3.98
		c-1.1-1.43-1.82-3.09-3.09-4.14c-1.27-1.05-2.43-2.43-3.53-2.59c-1.11-0.17-3.31,1.32-4.7,0.77c-1.38-0.55-2.2-0.66-3.25-1.55
		c-1.05-0.88-1.99-1.05-1.94-2.15c0.06-1.11,0.11-1.99,1.05-2.98c0.94-1,1.66-1.11,2.49-2.49c0.83-1.38,2.15-2.32,1.65-3.75
		c-0.49-1.44-1.04-2.38-1.93-3.92c-0.88-1.55-1.38-1.66-1.1-3.92c0.27-2.27-0.22-3.81,0.22-5.36c0.44-1.54,0.61-2.76,2.21-4.69
		s3.14-3.7,3.7-4.36c0.55-0.67,8.39-8.84,9.05-12.15c0.66-3.31,1.66-5.41,2.38-7.29c0.71-1.88,0.27-1.71,2.04-3.42
		c1.77-1.71,1.99-2.21,4.91-2.43c2.93-0.22,4.25-0.17,6.96-0.44c2.71-0.28,3.48,0.49,4.47-0.44c1-0.94,2.65-0.94,0.61-2.99
		c-2.04-2.04-3.7-1.82-3.2-3.14c0.49-1.33-0.72-1.55,1.71-3.04s2.59-2.21,3.42-4.2c0.83-1.98,1.44-4.36,1.71-6.9
		c0.28-2.54-0.38-3.42,1.22-5.91c1.6-2.48,1.32-1.43,2.76-3.75s1.6-1.99,2.15-5.25c0.56-3.25,1.16-6.62,1.38-8.06
		c0.22-1.43,0.22-1.93,1.27-3.26c1.05-1.32,2.27-1.98,2.27-3.81c0-1.82-0.11-0.93-2.38-2.37c-2.26-1.44-3.09-5.36-1.6-7.45
		c1.49-2.1,4.03-1.83,5.52-2.65c1.49-0.83,4.59-2.05,5.14-3.43c0.55-1.38,1.38-2.65,2.43-4.41c1.05-1.77-0.17-2.16,2.21-2.27
		c2.37-0.11,3.14,0.77,3.03-2.15c-0.11-2.93-0.16-6.41,0.28-7.4c0.44-0.99,1.88-1.99,1.88-1.99s0-4.8-0.22-5.08
		c-0.23-0.27-6.13-1.6-6.13-1.6s-3.04-0.55-4.09-1.38s-1.27-3.31-1.49-3.86c-0.22-0.56-1.33-1.72-2.43-2.1
		c-1.1-0.39-2.54-1-2.48-3.98c0.05-2.98,0.82-3.26,0.44-5.91c-0.39-2.65-0.5-3.2-0.5-3.2s4.25-2.48,4.31-2.76
		c0.05-0.28-0.06-4.75-0.06-4.75s-2.32-2.92-2.32-3.09c0-0.17-0.27-4.69-0.44-5.41c-0.16-0.72-0.55-7.4-0.39-8.06
		c0.17-0.66,2.49-7.01,3.26-7.84c0.78-0.83,4.97-4.75,5.63-5.63c0.67-0.89,1.11-0.56,1.66-2.32c0.55-1.77,1.33-3.15,0.72-4.42
		c-0.61-1.27-0.88-3.09-2.38-4.58c-1.49-1.49-3.36-3.76-3.75-4.48c-0.39-0.71,0.44-1.6-1.44-1.54c-1.87,0.05-3.92-0.44-5.57,0.49
		c-1.66,0.94-2.87,2.1-5.25,1.94c-2.37-0.17-3.09,0.16-3.7-0.22c-0.6-0.39-1.27-2.1-0.49-2.38c0.77-0.27,1.65-2.65,2.76-2.81
		c1.1-0.17,2.09,0.16,2.7-0.94c0.61-1.11,1.16-1.6,0.17-3.09c-1-1.5-0.89-1.27-3.26-3.1c-2.37-1.82-4.58-2.81-5.69-4.63
		c-1.1-1.83,0.22-12.43,0.22-12.43s0.61-1.76,0.61-2.54c0-0.77,0-3.59-0.5-4.41c-0.49-0.83-0.88-2.66-2.15-2.66
		c-1.27,0-4.25,3.87-4.75,3.65c-0.49-0.22-1.43-4.92-1.43-4.92s-0.56-1.15-1.49-3.58c-0.37-0.96-1.29-3.93-2.35-7.18
		c0.3,0.06,2.71,0.48,2.87,0.16c0.17-0.33,1.24-0.52,2.35-0.85c1.1-0.33,1.43,0.3,1.54,0.41c0.11,0.11,0.36,1.8,0.89,2.62
		c0.52,0.83,1.13,1.08,1.35,0.31c0.22-0.77,1.44-1.52,3.28-2.18c1.85-0.67,1.44,0.22,1.72,0.49c0.27,0.28-0.22,4.39-0.22,4.56
		c0,0.17,3.39,0.25,3.72,0.25s1.38-1.55,1.58-1.6c0.19-0.06,1.07,0.27,1.35,0.3c0.27,0.03,1.79-1.57,1.88-1.57
		c0.08,0,3.78,0.41,3.92,0.55c0.13,0.14,0.41,2.01,0.47,2.93c0.05,0.91,0.77,0.8,1.76,1.07c1,0.28,1.22,0.2,2.21,0.2
		c1,0,0.64-0.81,1.35-1.91c0.72-1.1,0.97-1.24,2.3-1.49c1.32-0.25,1.54,0.11,2.62,0.44c1.07,0.33,1.3,0.91,1.63,1.44
		c0.33,0.52,0.16,2.76,0.44,3.61c0.27,0.86,1.32,0.8,2.51-0.05c1.19-0.86,0.99-1.13,1.22-1.41c0.22-0.28,0.49-3.59,0.55-3.81
		c0.05-0.22,1.76-1.44,2.68-1.35c0.91,0.08,2.34,1.1,2.34,1.1s0.22,1.77-0.25,2.93c-0.47,1.16,0.34,4.11,0.97,4.5
		c0.64,0.38,1.02-0.58,1.55-1.13c0.52-0.56,1.16-1.55,2.32-2.21c1.15-0.66,1.65-0.33,2.7-1.33c1.05-0.99,0.58-1.35,0.58-1.98
		c0-0.64-1.74-2.71-1.99-2.79c-0.25-0.09-0.22-2.76,0.06-2.9c0.27-0.14,2.54-1.02,4.14-0.25c1.6,0.77,2.37,0.5,2.37,0.5
		s3.7,0.82,4.48,1.1c0.77,0.28,1.98,1.82,1.98,1.82s1.44,1.77,2.32,2.93c0.89,1.16,3.92-0.28,3.92-0.28s3.92,0,4.75-0.05
		c0.83-0.06,1.38-0.39,2.04-1.05c0.67-0.66,0-1.33-0.38-2.38c-0.39-1.04-1.77-2.42-2.71-3.31c-0.94-0.88-2.7-3.59-3.59-4.31
		c-0.88-0.71-8.22-7.5-9.22-8.33c-0.99-0.83-3.92-1.88-5.13-2.93c-1.22-1.05-1.94-1.82-3.43-4.14s-2.32-2.54-3.25-3.48
		c-0.94-0.94-3.04-2.15-4.03-3.2c-1-1.05-2.6-4.58-4.64-7.07c-2.05-2.48-2.54-3.15-2.71-3.31c-0.16-0.17-6.79-7.97-6.79-7.97
		s-0.68-0.64-2.21-2.14c-1.53-1.49-1.64-1.01-2.91-1.52c-1.27-0.52-1.91-0.59-3.18-1.07s-1.75-0.72-2.89-1.14
		c-1.14-0.43-2.17-1.33-2.72-2.04c-0.56-0.72-3.5-3-3.83-3.32c-0.33-0.31-1.22-0.31-2.36-1.08c-1.14-0.78-0.33-1.14-0.48-2.19
		c-0.14-1.05,0.32-1,1-1.75c0.68-0.76,1.19-1.42,1.41-1.84c0.23-0.43,0.26-1.13,0.17-1.92c-0.09-0.79-0.66-1.17-1.43-1.63
		c-0.78-0.46-2.34-1.92-2.34-1.92l-2.62-1.82c0,0-1.62,0.61-2.04,0.92s-1.62,2.5-1.62,2.72c0,0.22-2.89,1.07-2.89,1.07
		s-3.18-0.26-3-1.43c0.19-1.18,1.36-2.18,2.47-3.02c1.1-0.85,1.14-3.06,1.43-3.79c0.3-0.74,0.78-3.24,1.03-3.54
		c0.26-0.29,0.19-7.69,0.3-8.43c0.11-0.73,2.98-0.15,5.67-0.66c2.68-0.52,0.84,0.4,1.73,0.77c0.88,0.37,1.54,0.59,3.05,1.03
		c1.51,0.44,2.29,0.22,3.76,0.26c1.47,0.04,1.84-0.07,1.87-0.81c0.04-0.74-0.36-1.58-0.66-3.39c-0.29-1.8-1.58-1.91-2.17-3.16
		c-0.59-1.25-1.88-2.54-1.8-3.61c0.07-1.07,0.25-1.32,0.81-2.8c0.55-1.47-0.41-0.77-1.33-1.32c-0.92-0.55-1.54-0.88-1.77-1.58
		c-0.22-0.7-0.99-2.84-1.87-3.17c-0.89-0.33-2.65,0.15-3.21,0c-0.55-0.15-2.35-0.7-3.16-1.32c-0.81-0.63-1.03-1.22-2.36-2.29
		c-1.32-1.06-0.51-1.69-1.69-2.68c-1.18-1-1.77-0.08-2.43-0.08c-0.66,0-1.73,3.68-1.73,3.68l-1.77-1.03c0,0-0.22-4.23-0.55-5.37
		c-0.33-1.14-1.47-0.55-2.83-1.4c-1.36-0.85-1.62-1.44-1.73-2.72c-0.11-1.29-0.63-1.22-2.1-2.43c-1.47-1.22-1.4-0.81-2.65-2.03
		c-1.25-1.21-2.21-0.73-4.38-2.17c-2.17-1.44-1.07-1.33-1.55-2.36c-0.48-1.03,0.81-2.39,0.85-3.75c0.04-1.36,0.88-2.36,0.88-2.36
		s0.48-1.03,0.92-2.5c0.44-1.47,0.15-1.36,0.52-2.54c0.37-1.18,1.07-1.84,2.02-2.72c0.96-0.89,1.73-0.19,2.28-0.19
		c0.56,0,1.44-0.26,1.99-0.84c0.55-0.59,0.33-0.37,0.67-1.4c0.33-1.03,0.77-1.29,1.5-1.95c0.74-0.67,1.99-1.77,2.36-2.21
		s0.81-0.78,2.36-1.66c1.54-0.88,2.68-2.06,2.87-2.17c0.18-0.11,0.88-1.1,1.36-2.21c0.48-1.1,0.7-2.58,0.7-3.42
		c0-0.85,1.14-3.02,1.4-3.39c0.25-0.37,1.32-2.87,1.32-2.87s1.59-0.7,2.06-0.88c0.48-0.19,3.61,0.07,4.49,0.14
		c0.89,0.08,2.58,0.56,3.17,0.85c0.59,0.29,0.92,1.25,1.88,1.62c0.95,0.37,1.43,0.92,1.87,0.92c0.45,0,2.99-0.11,3.94-0.26
		c0.96-0.14,3.1-0.59,4.38-0.59c1.29,0,0.26,0.15,0.85,0.33c0.59,0.19,1.03-0.07,2.02-0.36c1-0.3,1.22-0.52,1.62-0.85
		c0.41-0.33,2.03-1.32,3.06-1.47c1.03-0.15,1.4,0.18,2.8,0.33s1.06,0.26,1.43,0.55c0.37,0.3,0.78,1.66,1.55,2.39
		c0.77,0.74,1.07,0.45,2.13,0.85c1.07,0.41,1.37,0.29,2.25,0.07c0.88-0.22,1.1-0.51,2.47-1.47c1.36-0.96,1.43-0.99,2.42-1.8
		c1-0.81,1.37-1.03,2.29-1.47c0.92-0.45,0.88-0.45,2.1-1.33c1.21-0.88,2.39-1.44,3.01-1.62c0.63-0.18,2.62-0.59,4.2-1.8
		c1.58-1.22,1.36-0.3,2.91-0.15c1.54,0.15,1.62,0.55,2.72,0.81c1.11,0.26,1.44,0.81,1.81,1.03c0.36,0.22,1.32,1.36,2.28,1.77
		c0.95,0.4,4.05,0.03,4.67,0.03c0.63,0,4.75,1.18,4.75,1.18s2.06-1.62,3.09-2.06s1.92-0.88,3.54-2.94c0.02-0.02,0.03-0.04,0.05-0.06
		l4.95-0.05c0,0,7.73-1.11,8.73-1.11c0.99,0,6.18,1.11,6.4,1.77c0.22,0.66,0.77,1.65,1.99,2.98c1.21,1.32,2.54,3.31,2.76,4.75
		c0.22,1.43,0.33,4.86,1.77,6.4c1.43,1.55,3.64,3.87,5.08,4.42c1.43,0.55,3.2,1.33,6.18,0.88c2.98-0.44,10.82-4.08,11.93-4.52
		c1.1-0.45,2.87-1.44,5.96-2.1c3.09-0.66,4.64-2.98,5.74-1.22c1.11,1.77,3.21,6.63,4.75,9.17c1.55,2.54,4.31,2.76,4.86,5.85
		c0.55,3.09,0.44,8.5-0.11,11.82c-0.55,3.31-1.66,7.06-1.1,8.94c0.55,1.88,2.2,4.09,3.31,5.74c1.1,1.66,2.43,2.65,1.65,3.65
		c-0.77,0.99-7.84,5.74-6.73,6.4c1.1,0.67,1.88,3.21,4.31,3.21c2.42,0,4.19-1.44,5.96,0.22c1.77,1.65,1.77,0.66,2.98,3.64
		c1.21,2.98,2.87,5.08,2.98,7.07s0.77,3.75,0.22,5.19c-0.55,1.43-1.21,1.54-1.99,3.86c-0.77,2.32-2.2-3.31,0.23,4.64
		c2.43,7.95,1.76,8.06,3.97,9.61c2.21,1.55,2.65,1.99,3.98,4.86c1.32,2.87,2.54,3.86,2.65,6.18c0.11,2.32-1.44,6.19-2.21,7.18
		c-0.77,0.99-3.76,4.09-3.98,7.73c-0.22,3.64-4.52,8.28-4.52,8.94c0,0.67,0.77,6.08,1.76,7.51c1,1.44,5.08,4.97,5.63,5.08
		c0.56,0.11,2.54-1.32,4.53-1.32s2.32,0.33,3.87-0.22c1.54-0.55,2.21-2.21,4.3-4.42c2.1-2.21,0.45-3.31,3.1-3.31
		c2.65,0,3.2-0.11,4.96,0.66c1.77,0.77,4.75-1.66,4.75-1.66s2.21-0.99,4.64-0.11c2.43,0.89,3.87,1.77,4.64,1.99
		c0.77,0.22,1.32,1.99,4.2,0.44c2.87-1.54,2.65-3.64,4.63-2.98c1.99,0.66,4.86,4.42,5.41,5.74c0.56,1.33,1.88,2.54,3.54,4.2
		c1.66,1.66,4.08,4.09,5.52,4.42c1.44,0.33,0.99,0.44,4.64,1.65c3.64,1.22,4.08-0.33,6.4,2.32c2.32,2.65,2.1,6.41,2.98,7.62
		c0.89,1.22-0.11,2.54,2.54,3.09c2.65,0.56,4.53-2.09,5.31,1.77c0.77,3.87,0.88,4.53,1.65,5.85c0.77,1.33-0.44-3.42,2.1,3.32
		c2.54,6.73,2.21,6.07,3.98,8.17c1.76,2.1,1.21,2.98,2.54,4.86c1.32,1.87,2.09,3.42,3.2,4.41c1.1,1,3.97,0.78,4.64-1.43
		c0.66-2.21-0.34-3.65,0.66-4.42c0.99-0.77,0.11-0.88,3.42-0.88c3.31,0,2.76-1.99,5.3,0.11c2.54,2.1,1.66,4.42,3.87,4.31
		c2.21-0.11,5.52-2.21,5.52-2.21s2.21,0.11,3.53,0.55c1.33,0.44,2.1-2.43,2.1-2.43s1.55-3.64,3.64-3.42c2.1,0.22,1.44,0,3.76,0.77
		c2.32,0.77,5.96,1.32,8.06,1.55c2.1,0.22-0.11-1.22,2.1-2.77c2.21-1.54,5.85-0.55,6.85-0.33c0.99,0.22,5.41,1.99,6.73,1.55
		c1.33-0.44,1.77,0.66,5.41-2.32c3.65-2.98,0.22-2.43,4.09-3.42c3.86-1-0.22,0.11,4.86-1.22c5.08-1.32,4.75-2.98,6.18-1.65
		c1.44,1.32,1.99,4.85,3.65,5.08c1.65,0.22,1.65-0.34,2.65,0.22c0.99,0.55,1.98,2.09,2.31,3.31c0.34,1.21,1.11,5.08,2.88,5.96
		c1.76,0.89,3.97,0.78,5.52,1.99c1.54,1.22,4.3,3.87,7.07,2.98c2.76-0.88,4.96-0.44,5.96-1.88c0.99-1.43-0.22-1.87,1.88-1.98
		c2.09-0.11,5.52-0.11,6.84-0.22c1.33-0.11,2.87-3.32,4.86-4.86c1.99-1.55,0.11-2.43,2.76-1.88c2.65,0.55,3.54,2.54,5.74,2.76
		c2.21,0.22,3.98-0.55,5.3,0.33C1080.04,553.25,1080.81,555.23,1080.92,556.45z"/>

	
	<path id="area-halabja" d="M981.61,766.23v-0.01c-0.33-0.41-0.56-0.67-0.66-0.73c-0.96-0.59-3.98-2.06-4.79-3.68s-0.73-4.71-1.18-5.01
    c-0.44-0.29-2.5-1.03-3.68-0.29c-1.17,0.74-1.1,1.69-2.57,1.69c-1.48,0-1.77,0.15-3.1-0.37c-1.32-0.51-2.28-0.07-2.87-0.81
    c-0.59-0.73-3.38-5.44-4.34-6.11c-0.96-0.66-1.03-2.06-3.31-2.28c-2.28-0.22-3.32-0.22-4.86-0.29c-1.55-0.08-2.43-0.22-3.98-0.44
    c-1.54-0.23-2.06,0.58-3.16,0c-1.11-0.59-0.89-0.89-1.25-1.4c-0.37-0.52-1.11-1.62-1.11-2.06c0-0.45,0.37-3.02,0.37-3.02l4.49-0.96
    l2.65,2.28c0,0,1.62-0.07,2.06-0.59c0.44-0.51,1.92-3.97,1.62-4.41c-0.29-0.45-0.66,0.22-0.96-1.33c-0.29-1.54,1.62-3.46,2.07-3.46
    c0.44,0,3.97,0.22,3.97,0.22s2.58,1.84,3.39,1.92c0.81,0.07,2.43,0.14,3.02-1.18c0.59-1.33,0.44-4.27,1.32-5.08
    s3.39-2.06,3.39-2.73c0-0.66,0.07-3.6,0.07-4.34s-2.06-3.46-1.69-4.34c0.37-0.89-0.66-1.18,1.69-2.73c2.36-1.54,2.8-1.47,3.61-2.57
    c0.81-1.11,0.07-1.99,1.69-3.24s2.43-0.59,4.49-2.21s3.46-2.43,4.42-3.83c0.96-1.4,5.74-3.9,5.74-3.9s2.06-2.58,1.92-3.31
    c-0.15-0.74-0.96-1.77-1.4-2.14s-3.46-4.34-3.46-4.34l-1.7-3.83c0,0,0.37-3.9,0.37-4.12c0-0.22-1.47-2.14-1.69-2.36
    c-0.22-0.22-0.59-1.47-1.91-1.47c-1.33,0-1.26-1.25-1.26-1.25l0.67-3.61l2.5-3.24c0,0,2.06-2.28,2.06-2.72c0-0.45,0-4.72,0-4.72
    s0.88-2.13,1.47-2.06c0.59,0.08,2.43,3.1,2.95,3.17c0.51,0.07,4.19-1.03,5.22-1.03c1.04,0,2.51-0.08,3.39-0.08
    c0.2,0,1.32-0.34,2.94-0.87
    M1000.23,660.96c0.39,0.88,0.83,1.74,1.29,2.49c1.22,1.99,4.42,6.52,5.08,8.18c0.67,1.65,1.22,5.85,1.66,6.84
    c0.44,1,3.42,1.99,4.42,2.76c0.99,0.78,1.99,1.99,3.31,4.09c1.33,2.1,3.42,4.42,4.31,4.53c0.88,0.11,1.32,2.09,1.99,2.54
    c0.66,0.44,2.98-0.78,3.75-0.78s3.42,1,3.53,1.77s-0.88,2.98,1.11,4.75s2.87,0.66,3.09,3.2c0.22,2.54,1.44,6.07,1.66,6.96
    c0.22,0.88-0.78,5.74-3.21,6.96c-2.43,1.21-3.31,3.75-4.63,4.3c-1.33,0.55-2.43,2.21-1.44,3.09c0.99,0.89,1.99,1.88,2.65,1.99
    s3.09,2.65,3.87,2.87c0.77,0.22,2.09,0.22,3.09,0.78c0.99,0.55,3.97-0.45,4.75-0.22c0.77,0.22,2.09-1.44,3.75,1.54
    c1.66,2.98,1.77,3.2,1.99,4.86c0.22,1.66-2.32,3.75-2.32,3.75s-3.53,1.99-5.08,3.21c-1.55,1.21-2.43,1.21-2.65,2.1
    c-0.22,0.88-0.77,0.55-0.22,2.65c0.55,2.09,3.53,5.41,2.76,6.51c-0.77,1.11,0.22,3.09,0.88,4.31c0.67,1.21,2.43,2.43,1.88,3.31
    c-0.55,0.88-1.99,4.31-2.98,4.64c-1,0.33-4.75,2.76-5.85,3.2c-1.11,0.44-2.65,1.55-3.87,1.55c-1.21,0-2.1,0.22-3.31-0.11
    c-1.22-0.33-2.76-1.99-4.2-2.21c-1.43-0.22-2.43-1-3.42-0.55c-1,0.44-0.66,5.41-1.11,5.85c-0.44,0.44-0.11,4.86-0.99,5.19
    c-0.88,0.33-1.99,1.66-3.09,1.66c-1.11,0-4.42-1.77-4.86-1.88s-3.31-1.88-3.53-3.09c-0.23-1.22-1-2.21-1-2.21s-2.98,1.54-4.42,1.1
    c-1.43-0.44-3.86-1.54-5.08-2.32c-1.21-0.77-0.33-1.43-2.76-1.54c-2.43-0.11-3.97-1.11-4.41-1.99c-0.45-0.88-2.54-0.99-3.1-0.99
    c-0.55,0-2.54-2.32-1.98-0.67c0.03,0.1,0.06,0.2,0.07,0.3" />
</svg>
